<?xml version="1.0" encoding="UTF-8"?> <svg xmlns="http://www.w3.org/2000/svg" width="100" height="35" viewBox="0 0 100 35" fill="none"><g clip-path="url(#clip0_9372_297628)"><path fill-rule="evenodd" clip-rule="evenodd" d="M81.85 19.02L78.16 13.84C78.6217 13.7183 79.063 13.5297 79.47 13.28C79.8504 13.0491 80.1886 12.7548 80.47 12.41C80.7614 12.0503 80.9912 11.6449 81.15 11.21C81.5262 10.1131 81.4979 8.91785 81.07 7.84004C80.8469 7.31228 80.5047 6.84336 80.07 6.47004C79.598 6.08162 79.0544 5.78946 78.47 5.61004C77.7829 5.40191 77.0679 5.30073 76.35 5.31004H70.25V19.02H72.64V14.25H75.64L79.01 19.02H81.85ZM78.98 9.84004C78.9979 10.163 78.9372 10.4855 78.8031 10.7798C78.6689 11.0742 78.4654 11.3316 78.21 11.53C77.6368 11.966 76.9296 12.1887 76.21 12.16H72.63V7.51004H76.13C76.8752 7.46322 77.6145 7.66742 78.23 8.09004C78.4906 8.29642 78.6956 8.56451 78.8266 8.87006C78.9575 9.17562 79.0103 9.50899 78.98 9.84004V9.84004Z" fill="black"></path><path fill-rule="evenodd" clip-rule="evenodd" d="M65.4901 5.33997H63.1101V13.22C63.1516 13.7322 63.0916 14.2475 62.9338 14.7365C62.7759 15.2256 62.5232 15.6787 62.1901 16.07C61.8603 16.4051 61.4638 16.6673 61.0262 16.8395C60.5887 17.0118 60.1199 17.0903 59.6501 17.07C59.1782 17.0962 58.7061 17.0205 58.2661 16.848C57.8261 16.6754 57.4284 16.41 57.1001 16.07C56.4268 15.256 56.0936 14.2136 56.1701 13.16V5.33997H53.7901V13.22C53.7694 14.1108 53.9083 14.9981 54.2001 15.84C54.46 16.5458 54.8693 17.1871 55.4001 17.72C55.9126 18.2232 56.531 18.6059 57.2101 18.84C57.9841 19.1102 58.8005 19.239 59.6201 19.22C60.4463 19.2396 61.2693 19.1109 62.0501 18.84C62.7483 18.6068 63.382 18.2129 63.9001 17.69C64.4198 17.1637 64.822 16.5331 65.0801 15.84C65.3702 14.9769 65.5089 14.0703 65.4901 13.16V5.33997Z" fill="black"></path><path fill-rule="evenodd" clip-rule="evenodd" d="M50.1 9.93003C50.1113 9.28197 49.9888 8.63855 49.74 8.04003C49.5185 7.4884 49.1769 6.99306 48.74 6.59003C48.266 6.16645 47.7068 5.84934 47.1 5.66003C46.3888 5.43515 45.6458 5.32708 44.9 5.34003H39.5V19.02H41.89V14.62H44.62C45.3412 14.6304 46.0597 14.5292 46.75 14.32C47.3887 14.14 47.9864 13.8377 48.51 13.43C49.0031 13.0358 49.4027 12.5372 49.68 11.97C49.9731 11.3442 50.1234 10.6611 50.12 9.97003L50.1 9.93003ZM47.66 9.98003C47.6704 10.3209 47.6039 10.6597 47.4654 10.9713C47.3269 11.2829 47.12 11.5594 46.86 11.78C46.2451 12.258 45.4774 12.4961 44.7 12.45H41.89V7.51003H44.7C45.4664 7.46579 46.2249 7.68452 46.85 8.13003C47.1242 8.3502 47.3411 8.63343 47.4822 8.95557C47.6232 9.27772 47.6842 9.6292 47.66 9.98003V9.98003Z" fill="black"></path><path fill-rule="evenodd" clip-rule="evenodd" d="M95.9396 5.32996H85.8096V7.49996H88.1996H88.9696H95.9396V5.32996Z" fill="black"></path><path fill-rule="evenodd" clip-rule="evenodd" d="M95.9396 16.85H85.8096V19.02H88.1996H88.9696H95.9396V16.85Z" fill="black"></path><path fill-rule="evenodd" clip-rule="evenodd" d="M95.9396 11.09H85.8096V13.26H88.1996H88.9696H95.9396V11.09Z" fill="black"></path><path fill-rule="evenodd" clip-rule="evenodd" d="M43.84 23.93H39.5V29.93H40.19V27.34H43.46V26.72H40.19V24.57H43.84V23.94V23.93ZM50.08 23.93H49.4L46.65 30.01H47.4L48.12 28.42H51.4L52.1 30.01H52.84L50.09 23.93H50.08ZM51.08 27.82H48.4L49.78 24.74L51.08 27.82ZM61.7 30.01L59.85 27.55C60.0753 27.5104 60.2941 27.4398 60.5 27.34C60.6975 27.2497 60.8771 27.1243 61.03 26.97C61.1725 26.8213 61.2876 26.6487 61.37 26.46C61.4491 26.242 61.4897 26.0119 61.49 25.78C61.493 25.5244 61.4383 25.2715 61.33 25.04C61.228 24.8194 61.0776 24.6246 60.89 24.47C60.6877 24.3064 60.4573 24.181 60.21 24.1C59.9182 24.0121 59.6148 23.9683 59.31 23.97H56.71V29.97H57.4V27.62H59.12L60.88 29.97L61.7 30.01ZM60.8 25.81C60.8081 25.9931 60.7702 26.1753 60.69 26.34C60.6085 26.4917 60.4961 26.6245 60.36 26.73C60.214 26.8414 60.0475 26.9229 59.87 26.97C59.6699 27.0348 59.4603 27.0653 59.25 27.06H57.4V24.56H59.3C59.6868 24.5371 60.0712 24.635 60.4 24.84C60.5371 24.9418 60.6459 25.0771 60.7159 25.2329C60.7859 25.3887 60.8149 25.5598 60.8 25.73V25.81ZM70.8 25.12V30.01H71.48V24.01H70.8L68.61 27.3L66.4 23.93H65.69V29.93H66.4V25.09L68.59 28.31L70.78 25.08L70.8 25.12ZM75.98 23.97V29.97H76.66V23.97H75.98ZM85.6 28.81L81.8 23.97H81.16V29.97H81.82V25.02L85.72 29.97H86.27V23.97H85.61V28.81H85.6ZM95.93 29.2V26.75H93.45V27.35H95.28V28.84C95.0479 29.0235 94.788 29.1687 94.51 29.27C94.1911 29.393 93.8517 29.4541 93.51 29.45C93.1669 29.4592 92.8258 29.3944 92.51 29.26C92.2222 29.1388 91.9632 28.9582 91.75 28.73C91.5415 28.4994 91.3786 28.2313 91.27 27.94C91.159 27.6185 91.1049 27.2801 91.11 26.94C91.1002 26.5987 91.158 26.2589 91.28 25.94C91.3891 25.6511 91.5482 25.3837 91.75 25.15C91.9547 24.9229 92.2029 24.7392 92.48 24.61C92.7675 24.4742 93.0821 24.4058 93.4 24.41C93.5944 24.4113 93.7883 24.428 93.98 24.46C94.1473 24.4914 94.3114 24.5383 94.47 24.6C94.6118 24.6634 94.7488 24.7369 94.88 24.82C95 24.91 95.13 25 95.24 25.1L95.68 24.59C95.5358 24.4647 95.382 24.3511 95.22 24.25C95.0563 24.1515 94.8859 24.0646 94.71 23.99C94.5189 23.9201 94.3212 23.8699 94.12 23.84C93.8925 23.7985 93.6611 23.7818 93.43 23.79C93.0034 23.7821 92.5802 23.8674 92.19 24.04C91.8113 24.1914 91.47 24.4234 91.19 24.72C90.6473 25.3241 90.348 26.108 90.35 26.92C90.3483 27.3334 90.4228 27.7436 90.57 28.13C90.6989 28.5034 90.907 28.8445 91.18 29.13C91.4597 29.4221 91.8014 29.6477 92.18 29.79C92.5849 29.9597 93.0212 30.0415 93.46 30.03C93.9482 30.0754 94.4403 30.0105 94.9 29.84C95.2792 29.6675 95.6299 29.4382 95.94 29.16L95.93 29.2Z" fill="black"></path><path fill-rule="evenodd" clip-rule="evenodd" d="M33.4 16.59C33.352 15.7689 33.2383 14.953 33.06 14.15C29.9425 14.0752 26.8893 13.2484 24.16 11.74L23.4 11.37C21.1693 10.2161 18.823 9.30101 16.4 8.64005C14.1752 8.07779 11.8376 8.14705 9.65 8.84005C7.59157 9.51879 5.46011 9.95179 3.3 10.13C2.79 10.18 2.3 10.2 1.76 10.22C0.670076 12.3972 0.0693815 14.7863 0 17.22C1.43139 17.2116 2.85961 17.0845 4.27 16.84C5.35221 16.5455 6.4011 16.1401 7.4 15.63C8.6 15.1 10.22 14.39 12.91 13.35C14.5101 12.7298 16.248 12.5536 17.94 12.84C20.1718 13.2578 22.3536 13.908 24.45 14.78C26.0391 15.4232 27.6735 15.948 29.34 16.35C30.6718 16.6463 32.0425 16.7273 33.4 16.59V16.59Z" fill="#ED6F10"></path><path fill-rule="evenodd" clip-rule="evenodd" d="M32.8796 21.95C33.0941 21.1228 33.2445 20.2803 33.3296 19.43C31.7874 19.5387 30.2376 19.4208 28.7296 19.08C26.9135 18.6495 25.1319 18.0846 23.3996 17.39C21.4987 16.5877 19.5174 15.9909 17.4896 15.61C16.2611 15.3992 14.9983 15.5307 13.8396 15.99C11.3796 16.99 9.69961 17.68 8.45961 18.23C7.2986 18.7889 6.0863 19.2343 4.83961 19.56C3.27577 19.8519 1.69023 20.0125 0.0996094 20.04C0.325841 21.6411 0.783979 23.2008 1.45961 24.67C4.48295 24.306 7.42378 23.4373 10.1596 22.1C13.1596 20.77 15.9896 19.55 20.3096 19.82C22.0772 19.9882 23.825 20.323 25.5296 20.82C27.9236 21.4983 30.3924 21.8778 32.8796 21.95V21.95Z" fill="#4D7534"></path><path fill-rule="evenodd" clip-rule="evenodd" d="M27.9495 30.08C29.5976 28.5816 30.9302 26.7696 31.8695 24.75C29.5003 24.5928 27.1541 24.1872 24.8695 23.54C23.3295 23.1021 21.7531 22.8042 20.1595 22.65C16.5195 22.42 14.0295 23.51 11.3195 24.65C8.6929 25.9212 5.89792 26.8102 3.01953 27.29C3.83517 28.4452 4.79266 29.4934 5.86953 30.41C6.80369 30.3836 7.73381 30.2765 8.64953 30.09C14.9295 28.68 15.9795 26.84 21.6495 28.58C22.8361 29.0915 24.0595 29.5127 25.3095 29.84C26.1769 30.0244 27.0631 30.105 27.9495 30.08V30.08Z" fill="#6CC6F0"></path><path fill-rule="evenodd" clip-rule="evenodd" d="M16.6998 34.43C20.0025 34.4281 23.2309 33.4505 25.9798 31.62C24.9798 31.46 24.0398 31.25 23.0898 31C21.9007 30.6591 20.6819 30.4314 19.4498 30.32C17.0004 30.2153 14.5672 30.764 12.3998 31.91C11.5998 32.26 10.7698 32.63 9.83984 32.91C11.9926 33.898 14.3312 34.4162 16.6998 34.43V34.43Z" fill="#3A589A"></path><path fill-rule="evenodd" clip-rule="evenodd" d="M32.1304 11.25C31.0092 8.57529 29.2119 6.23795 26.9149 4.46734C24.6179 2.69673 21.9 1.55366 19.028 1.15028C16.156 0.746906 13.2284 1.09708 10.5325 2.16644C7.8366 3.2358 5.46501 4.98763 3.65039 7.25004C5.39841 7.04271 7.12068 6.65738 8.79039 6.10004C11.4589 5.24546 14.3133 5.15539 17.0304 5.84004C19.6686 6.56046 22.2203 7.56641 24.6404 8.84004C25.1104 9.05004 25.2704 9.14004 25.4204 9.22004C27.489 10.3621 29.7756 11.0539 32.1304 11.25V11.25Z" fill="#F5A543"></path><path d="M100 1.96997C100 2.5004 99.7893 3.00911 99.4142 3.38418C99.0391 3.75926 98.5304 3.96997 98 3.96997C97.4696 3.96997 96.9609 3.75926 96.5858 3.38418C96.2107 3.00911 96 2.5004 96 1.96997C96 1.43954 96.2107 0.93083 96.5858 0.555757C96.9609 0.180684 97.4696 -0.0300293 98 -0.0300293C98.5304 -0.0300293 99.0391 0.180684 99.4142 0.555757C99.7893 0.93083 100 1.43954 100 1.96997ZM96.46 1.96997C96.4532 2.17544 96.4882 2.38015 96.5628 2.57172C96.6374 2.76329 96.7501 2.93773 96.8941 3.0845C97.038 3.23126 97.2103 3.3473 97.4003 3.42559C97.5904 3.50388 97.7944 3.54279 98 3.53997C98.2017 3.53875 98.4012 3.49711 98.5865 3.41752C98.7719 3.33794 98.9395 3.22201 99.0793 3.07659C99.2191 2.93118 99.3284 2.75921 99.4006 2.57086C99.4729 2.38251 99.5067 2.1816 99.5 1.97997C99.5356 1.76247 99.5235 1.53982 99.4646 1.32746C99.4056 1.11509 99.3011 0.918098 99.1584 0.750124C99.0157 0.582149 98.8382 0.447216 98.6382 0.354677C98.4382 0.262137 98.2204 0.214207 98 0.214207C97.7796 0.214207 97.5618 0.262137 97.3618 0.354677C97.1618 0.447216 96.9843 0.582149 96.8416 0.750124C96.6989 0.918098 96.5944 1.11509 96.5354 1.32746C96.4765 1.53982 96.4644 1.76247 96.5 1.97997L96.46 1.96997ZM97.68 2.96997H97.22V0.969971C97.4706 0.923713 97.7253 0.903605 97.98 0.909971C98.2153 0.891492 98.4511 0.940031 98.66 1.04997C98.7226 1.1022 98.7723 1.16817 98.8053 1.24275C98.8382 1.31733 98.8535 1.39851 98.85 1.47997C98.8412 1.59087 98.7963 1.69584 98.7223 1.77889C98.6483 1.86194 98.5492 1.91851 98.44 1.93997V1.93997C98.5387 1.9786 98.6247 2.04398 98.6883 2.12877C98.7519 2.21356 98.7906 2.3144 98.8 2.41997C98.8187 2.59128 98.8696 2.75753 98.95 2.90997H98.46C98.3817 2.7594 98.3277 2.5974 98.3 2.42997C98.3 2.21997 98.14 2.11997 97.89 2.11997H97.68V2.96997ZM97.68 1.85997H97.89C98.15 1.85997 98.35 1.76997 98.35 1.56997C98.35 1.36997 98.22 1.26997 97.93 1.26997H97.68V1.85997Z" fill="black"></path></g><defs><clipPath id="clip0_9372_297628"><rect width="100" height="34.42" fill="white"></rect></clipPath></defs></svg> 